<svg xmlns="http://www.w3.org/2000/svg" width="1400" height="760" viewBox="0 0 1400 760">
  <defs>
    <style>
      .box { fill: #f8fbff; stroke: #1f8ed8; stroke-width: 2; rx: 10; }
      .head { fill: #e7f4ff; stroke: #1f8ed8; stroke-width: 2; }
      .title { font-family: Arial, sans-serif; font-size: 18px; font-weight: 700; fill: #0f3f66; }
      .text { font-family: Arial, sans-serif; font-size: 14px; fill: #1e293b; }
      .pk { fill: #0b7285; font-weight: 700; }
      .fk { fill: #1d4ed8; font-weight: 700; }
      .line { stroke: #1f8ed8; stroke-width: 2; fill: none; stroke-dasharray: 6 5; }
    </style>
  </defs>

  <rect x="20" y="20" width="220" height="170" class="box"/>
  <rect x="20" y="20" width="220" height="34" class="head"/>
  <text x="34" y="43" class="title">categories</text>
  <text x="34" y="76" class="text"><tspan class="pk">PK</tspan> category_id</text>
  <text x="34" y="102" class="text">category_name</text>
  <text x="34" y="128" class="text">description</text>

  <rect x="280" y="20" width="260" height="250" class="box"/>
  <rect x="280" y="20" width="260" height="34" class="head"/>
  <text x="294" y="43" class="title">products</text>
  <text x="294" y="76" class="text"><tspan class="pk">PK</tspan> product_id</text>
  <text x="294" y="102" class="text">product_name</text>
  <text x="294" y="128" class="text"><tspan class="fk">FK</tspan> supplier_id</text>
  <text x="294" y="154" class="text"><tspan class="fk">FK</tspan> category_id</text>
  <text x="294" y="180" class="text">unit_price</text>
  <text x="294" y="206" class="text">units_in_stock</text>
  <text x="294" y="232" class="text">discontinued</text>

  <rect x="580" y="20" width="250" height="250" class="box"/>
  <rect x="580" y="20" width="250" height="34" class="head"/>
  <text x="594" y="43" class="title">suppliers</text>
  <text x="594" y="76" class="text"><tspan class="pk">PK</tspan> supplier_id</text>
  <text x="594" y="102" class="text">company_name</text>
  <text x="594" y="128" class="text">contact_name</text>
  <text x="594" y="154" class="text">city</text>
  <text x="594" y="180" class="text">country</text>
  <text x="594" y="206" class="text">phone</text>
  <text x="594" y="232" class="text">homepage</text>

  <rect x="900" y="20" width="260" height="320" class="box"/>
  <rect x="900" y="20" width="260" height="34" class="head"/>
  <text x="914" y="43" class="title">employees</text>
  <text x="914" y="76" class="text"><tspan class="pk">PK</tspan> employee_id</text>
  <text x="914" y="102" class="text">first_name</text>
  <text x="914" y="128" class="text">last_name</text>
  <text x="914" y="154" class="text">title</text>
  <text x="914" y="180" class="text">city</text>
  <text x="914" y="206" class="text">country</text>
  <text x="914" y="232" class="text">hire_date</text>
  <text x="914" y="258" class="text"><tspan class="fk">FK</tspan> reports_to</text>

  <rect x="1160" y="20" width="220" height="140" class="box"/>
  <rect x="1160" y="20" width="220" height="34" class="head"/>
  <text x="1174" y="43" class="title">employee_territories</text>
  <text x="1174" y="76" class="text"><tspan class="fk">FK</tspan> employee_id</text>
  <text x="1174" y="102" class="text"><tspan class="fk">FK</tspan> territory_id</text>

  <rect x="1160" y="190" width="220" height="120" class="box"/>
  <rect x="1160" y="190" width="220" height="34" class="head"/>
  <text x="1174" y="213" class="title">territories</text>
  <text x="1174" y="246" class="text"><tspan class="pk">PK</tspan> territory_id</text>
  <text x="1174" y="272" class="text"><tspan class="fk">FK</tspan> region_id</text>

  <rect x="1160" y="340" width="220" height="100" class="box"/>
  <rect x="1160" y="340" width="220" height="34" class="head"/>
  <text x="1174" y="363" class="title">region</text>
  <text x="1174" y="396" class="text"><tspan class="pk">PK</tspan> region_id</text>

  <rect x="20" y="250" width="240" height="180" class="box"/>
  <rect x="20" y="250" width="240" height="34" class="head"/>
  <text x="34" y="273" class="title">order_details</text>
  <text x="34" y="306" class="text"><tspan class="fk">FK</tspan> order_id</text>
  <text x="34" y="332" class="text"><tspan class="fk">FK</tspan> product_id</text>
  <text x="34" y="358" class="text">unit_price</text>
  <text x="34" y="384" class="text">quantity</text>
  <text x="34" y="410" class="text">discount</text>

  <rect x="320" y="360" width="260" height="200" class="box"/>
  <rect x="320" y="360" width="260" height="34" class="head"/>
  <text x="334" y="383" class="title">orders</text>
  <text x="334" y="416" class="text"><tspan class="pk">PK</tspan> order_id</text>
  <text x="334" y="442" class="text"><tspan class="fk">FK</tspan> customer_id</text>
  <text x="334" y="468" class="text"><tspan class="fk">FK</tspan> employee_id</text>
  <text x="334" y="494" class="text">order_date</text>
  <text x="334" y="520" class="text">ship_country</text>
  <text x="334" y="546" class="text">freight</text>

  <rect x="20" y="500" width="260" height="170" class="box"/>
  <rect x="20" y="500" width="260" height="34" class="head"/>
  <text x="34" y="523" class="title">customers</text>
  <text x="34" y="556" class="text"><tspan class="pk">PK</tspan> customer_id</text>
  <text x="34" y="582" class="text">company_name</text>
  <text x="34" y="608" class="text">contact_name</text>
  <text x="34" y="634" class="text">city</text>

  <path d="M240 95 L280 95" class="line"/>
  <path d="M540 128 L580 128" class="line"/>
  <path d="M260 332 L320 416" class="line"/>
  <path d="M280 556 L320 442" class="line"/>
  <path d="M580 430 L900 430 L900 468" class="line"/>
  <path d="M540 332 L540 260 L410 260 L410 360" class="line"/>
  <path d="M1160 95 L1160 95 L1160 95" class="line"/>
  <path d="M1270 160 L1270 190" class="line"/>
  <path d="M1270 310 L1270 340" class="line"/>
</svg>
